<svg width="293" height="65" viewBox="0 0 293 65" fill="none" xmlns="http://www.w3.org/2000/svg">
<path d="M273.51 65.0002C269.604 65.0002 266.003 64.1152 262.707 62.3453C259.472 60.5143 256.848 57.7983 254.834 54.1974C252.881 50.5964 251.904 46.2326 251.904 41.1058C251.904 36.0401 252.881 31.7373 254.834 28.1974C256.848 24.5964 259.472 21.911 262.707 20.141C266.003 18.31 269.512 17.3945 273.235 17.3945C277.142 17.3945 280.559 18.249 283.489 19.9579C286.419 21.6058 288.677 23.9556 290.264 27.0072C291.851 30.0589 292.644 33.5683 292.644 37.5354V42.5706H260.602C260.785 45.8664 261.517 48.6434 262.799 50.9016C264.08 53.1598 265.667 54.8688 267.559 56.0284C269.512 57.127 271.465 57.6763 273.419 57.6763H274.151C276.531 57.6763 278.637 57.0659 280.468 55.8453C282.299 54.6246 283.428 52.8547 283.855 50.5354H292.553C291.759 55.0518 289.592 58.5918 286.052 61.1551C282.513 63.7185 278.332 65.0002 273.51 65.0002ZM283.947 35.7044C283.764 31.9814 282.696 29.2349 280.743 27.465C278.851 25.634 276.47 24.7185 273.602 24.7185H272.869C270.184 24.7185 267.742 25.6035 265.545 27.3734C263.409 29.1434 261.944 31.9204 261.151 35.7044H283.947Z" fill="#181818"/>
<path d="M205.254 0H213.951V38.0846L234.092 18.3099H245.536L226.494 36.5282L246.451 64.0846H235.74L220.268 42.4789L213.951 48.6127V64.0846H205.254V0Z" fill="#181818"/>
<path d="M173.507 65.0002C169.418 65.0002 165.695 63.9932 162.338 61.9791C158.981 59.965 156.326 57.1575 154.373 53.5565C152.481 49.9556 151.535 45.8359 151.535 41.1974C151.535 36.5589 152.481 32.4391 154.373 28.8382C156.326 25.2373 158.981 22.4297 162.338 20.4157C165.695 18.4016 169.418 17.3945 173.507 17.3945C177.596 17.3945 181.319 18.4016 184.676 20.4157C188.033 22.4297 190.658 25.2373 192.55 28.8382C194.503 32.4391 195.479 36.5589 195.479 41.1974C195.479 45.8359 194.503 49.9556 192.55 53.5565C190.658 57.1575 188.033 59.965 184.676 61.9791C181.319 63.9932 177.596 65.0002 173.507 65.0002ZM173.873 57.6763C177.657 57.6763 180.74 56.2115 183.12 53.2819C185.561 50.3523 186.782 46.3241 186.782 41.1974C186.782 36.0706 185.561 32.0424 183.12 29.1129C180.74 26.1833 177.657 24.7185 173.873 24.7185H173.141C169.357 24.7185 166.244 26.1833 163.803 29.1129C161.423 32.0424 160.232 36.0706 160.232 41.1974C160.232 46.3241 161.423 50.3523 163.803 53.2819C166.244 56.2115 169.357 57.6763 173.141 57.6763H173.873Z" fill="#181818"/>
<path d="M146.078 18.3096L129.141 64.0843H118.613L101.676 18.3096H110.648L123.922 55.5702L137.197 18.3096H146.078Z" fill="#181818"/>
<path d="M53.9727 18.31H62.6699V24.7185C65.9047 19.8358 70.7873 17.3945 77.3179 17.3945C82.5057 17.3945 86.5339 18.8593 89.4025 21.7889C92.3321 24.6575 93.7969 28.533 93.7969 33.4157V64.0847H85.0997V35.2467C85.0997 31.8899 84.3368 29.296 82.8109 27.465C81.3461 25.634 79.0268 24.7185 75.8531 24.7185H75.1207C72.9235 24.7185 70.8789 25.2678 68.9869 26.3664C67.0948 27.465 65.569 29.0518 64.4094 31.1269C63.2497 33.2021 62.6699 35.6434 62.6699 38.4509V64.0847H53.9727V18.31Z" fill="#181818"/>
<path d="M15.732 0.144531H26.4041V11.4605H15.732V0.144531ZM0 56.9086H16.744V25.2606H1.84V18.0846H25.4841V56.9086H41.7681V64.0846H0V56.9086Z" fill="#181818"/>
</svg>
