<svg width="231" height="100" viewBox="0 0 231 100" fill="none" xmlns="http://www.w3.org/2000/svg">
<g clip-path="url(#clip0_659_3591)">
<rect width="100" height="100" fill="#181818"/>
<path d="M57.1951 38.6667H70V30H30V38.6667H42.8049L57.1951 61.3333H70V70H30V61.3333H42.8049" stroke="white" stroke-width="2.8"/>
<rect width="131" height="100" transform="translate(100)" fill="#181818"/>
<path d="M111.37 43.34H107.89V39.65H111.37V43.34ZM116.38 60.5H102.76V58.16H108.22V47.84H103.36V45.5H111.07V58.16H116.38V60.5ZM120.538 60.5V45.5H123.388V47.6C124.288 46.25 125.788 45.2 128.188 45.2C131.638 45.2 133.588 47.3 133.588 50.45V60.5H130.738V51.05C130.738 48.95 129.838 47.6 127.708 47.6H127.468C125.338 47.6 123.388 49.25 123.388 52.1V60.5H120.538ZM141.786 60.5L136.236 45.5H139.176L143.526 57.71L147.876 45.5H150.786L145.236 60.5H141.786ZM159.723 60.8C155.673 60.8 152.523 57.65 152.523 53C152.523 48.35 155.673 45.2 159.723 45.2C163.773 45.2 166.923 48.35 166.923 53C166.923 57.65 163.773 60.8 159.723 60.8ZM155.373 53C155.373 56.45 157.173 58.4 159.603 58.4H159.843C162.273 58.4 164.073 56.45 164.073 53C164.073 49.55 162.273 47.6 159.843 47.6H159.603C157.173 47.6 155.373 49.55 155.373 53ZM170.804 60.5V39.5H173.654V51.98L180.254 45.5H184.004L177.764 51.47L184.304 60.5H180.794L175.724 53.42L173.654 55.43V60.5H170.804ZM192.459 60.8C188.739 60.8 185.379 58.22 185.379 52.97C185.379 47.78 188.829 45.2 192.369 45.2C196.269 45.2 198.729 47.9 198.729 51.8V53.45H188.229C188.409 56.87 190.599 58.4 192.429 58.4H192.669C194.139 58.4 195.549 57.65 195.849 56.06H198.699C198.159 59.09 195.549 60.8 192.459 60.8ZM188.409 51.2H195.879C195.759 48.59 194.199 47.6 192.489 47.6H192.249C190.689 47.6 188.949 48.53 188.409 51.2Z" fill="white"/>
</g>
<defs>
<clipPath id="clip0_659_3591">
<rect width="231" height="100" rx="5" fill="white"/>
</clipPath>
</defs>
</svg>
