<svg width="116" height="50" viewBox="0 0 116 50" fill="none" xmlns="http://www.w3.org/2000/svg">
<g clip-path="url(#clip0_659_3573)">
<rect width="50" height="50" fill="#E6FD13"/>
<path d="M28.5975 19.3333H35V15H15V19.3333H21.4025L28.5975 30.6667H35V35H15V30.6667H21.4025" stroke="#181818" stroke-width="1.2"/>
<rect width="66" height="50" transform="translate(50)" fill="#E6FD13"/>
<path d="M55.685 21.92H53.945V20.075H55.685V21.92ZM58.19 30.5H51.38V29.33H54.11V24.17H51.68V23H55.535V29.33H58.19V30.5ZM60.2691 30.5V23H61.6941V24.05C62.1441 23.375 62.8941 22.85 64.0941 22.85C65.8191 22.85 66.7941 23.9 66.7941 25.475V30.5H65.3691V25.775C65.3691 24.725 64.9191 24.05 63.8541 24.05H63.7341C62.6691 24.05 61.6941 24.875 61.6941 26.3V30.5H60.2691ZM70.8931 30.5L68.1181 23H69.5881L71.7631 29.105L73.9381 23H75.3931L72.6181 30.5H70.8931ZM79.8614 30.65C77.8364 30.65 76.2614 29.075 76.2614 26.75C76.2614 24.425 77.8364 22.85 79.8614 22.85C81.8864 22.85 83.4614 24.425 83.4614 26.75C83.4614 29.075 81.8864 30.65 79.8614 30.65ZM77.6864 26.75C77.6864 28.475 78.5864 29.45 79.8014 29.45H79.9214C81.1364 29.45 82.0364 28.475 82.0364 26.75C82.0364 25.025 81.1364 24.05 79.9214 24.05H79.8014C78.5864 24.05 77.6864 25.025 77.6864 26.75ZM85.4018 30.5V20H86.8268V26.24L90.1268 23H92.0018L88.8818 25.985L92.1518 30.5H90.3968L87.8618 26.96L86.8268 27.965V30.5H85.4018ZM96.2296 30.65C94.3696 30.65 92.6896 29.36 92.6896 26.735C92.6896 24.14 94.4146 22.85 96.1846 22.85C98.1346 22.85 99.3646 24.2 99.3646 26.15V26.975H94.1146C94.2046 28.685 95.2996 29.45 96.2146 29.45H96.3346C97.0696 29.45 97.7746 29.075 97.9246 28.28H99.3496C99.0796 29.795 97.7746 30.65 96.2296 30.65ZM94.2046 25.85H97.9396C97.8796 24.545 97.0996 24.05 96.2446 24.05H96.1246C95.3446 24.05 94.4746 24.515 94.2046 25.85Z" fill="#181818"/>
</g>
<defs>
<clipPath id="clip0_659_3573">
<rect width="116" height="50" rx="4" fill="white"/>
</clipPath>
</defs>
</svg>
