<?xml version="1.0" encoding="UTF-8" standalone="no"?>
<!DOCTYPE svg PUBLIC "-//W3C//DTD SVG 1.1//EN" "http://www.w3.org/Graphics/SVG/1.1/DTD/svg11.dtd">
<svg width="100%" height="100%" viewBox="0 0 60 60" version="1.1" xmlns="http://www.w3.org/2000/svg" xmlns:xlink="http://www.w3.org/1999/xlink" xml:space="preserve" xmlns:serif="http://www.serif.com/" style="fill-rule:evenodd;clip-rule:evenodd;stroke-linecap:round;stroke-linejoin:round;stroke-miterlimit:1.5;">
    <path d="M-3.5,63.5L64,-4" style="fill:none;stroke:black;stroke-width:1px;"/>
    <g transform="matrix(1,0,0,1,0,5)">
        <path d="M-3.5,63.5L64,-4" style="fill:none;stroke:black;stroke-width:1px;"/>
    </g>
    <g transform="matrix(1,0,0,1,0,10)">
        <path d="M-3.5,63.5L64,-4" style="fill:none;stroke:black;stroke-width:1px;"/>
    </g>
    <g transform="matrix(1,0,0,1,0,15)">
        <path d="M-3.5,63.5L64,-4" style="fill:none;stroke:black;stroke-width:1px;"/>
    </g>
    <g transform="matrix(1,0,0,1,0,20)">
        <path d="M-3.5,63.5L64,-4" style="fill:none;stroke:black;stroke-width:1px;"/>
    </g>
    <g transform="matrix(1,0,0,1,0,25)">
        <path d="M-3.5,63.5L64,-4" style="fill:none;stroke:black;stroke-width:1px;"/>
    </g>
    <g transform="matrix(1,0,0,1,0,30)">
        <path d="M-3.5,63.5L64,-4" style="fill:none;stroke:black;stroke-width:1px;"/>
    </g>
    <g transform="matrix(1,0,0,1,0,35)">
        <path d="M-3.5,63.5L64,-4" style="fill:none;stroke:black;stroke-width:1px;"/>
    </g>
    <g transform="matrix(1,0,0,1,0,40)">
        <path d="M-3.5,63.5L64,-4" style="fill:none;stroke:black;stroke-width:1px;"/>
    </g>
    <g transform="matrix(1,0,0,1,0,45)">
        <path d="M-3.5,63.5L64,-4" style="fill:none;stroke:black;stroke-width:1px;"/>
    </g>
    <g transform="matrix(1,0,0,1,0,50)">
        <path d="M-3.5,63.5L64,-4" style="fill:none;stroke:black;stroke-width:1px;"/>
    </g>
    <g transform="matrix(1,0,0,1,0,55)">
        <path d="M-3.5,63.5L64,-4" style="fill:none;stroke:black;stroke-width:1px;"/>
    </g>
    <g transform="matrix(1,0,0,1,0,60)">
        <path d="M-3.5,63.5L64,-4" style="fill:none;stroke:black;stroke-width:1px;"/>
    </g>
    <g transform="matrix(1,0,0,1,0,-5)">
        <path d="M-3.5,63.5L64,-4" style="fill:none;stroke:black;stroke-width:1px;"/>
    </g>
    <g transform="matrix(1,0,0,1,0,-10)">
        <path d="M-3.5,63.5L64,-4" style="fill:none;stroke:black;stroke-width:1px;"/>
    </g>
    <g transform="matrix(1,0,0,1,0,-15)">
        <path d="M-3.5,63.5L64,-4" style="fill:none;stroke:black;stroke-width:1px;"/>
    </g>
    <g transform="matrix(1,0,0,1,0,-20)">
        <path d="M-3.5,63.5L64,-4" style="fill:none;stroke:black;stroke-width:1px;"/>
    </g>
    <g transform="matrix(1,0,0,1,0,-25)">
        <path d="M-3.5,63.5L64,-4" style="fill:none;stroke:black;stroke-width:1px;"/>
    </g>
    <g transform="matrix(1,0,0,1,0,-30)">
        <path d="M-3.5,63.5L64,-4" style="fill:none;stroke:black;stroke-width:1px;"/>
    </g>
    <g transform="matrix(1,0,0,1,0,-35)">
        <path d="M-3.5,63.5L64,-4" style="fill:none;stroke:black;stroke-width:1px;"/>
    </g>
    <g transform="matrix(1,0,0,1,0,-40)">
        <path d="M-3.5,63.5L64,-4" style="fill:none;stroke:black;stroke-width:1px;"/>
    </g>
    <g transform="matrix(1,0,0,1,0,-45)">
        <path d="M-3.5,63.5L64,-4" style="fill:none;stroke:black;stroke-width:1px;"/>
    </g>
    <g transform="matrix(1,0,0,1,0,-50)">
        <path d="M-3.5,63.5L64,-4" style="fill:none;stroke:black;stroke-width:1px;"/>
    </g>
    <g transform="matrix(1,0,0,1,0,-55)">
        <path d="M-3.5,63.5L64,-4" style="fill:none;stroke:black;stroke-width:1px;"/>
    </g>
    <g transform="matrix(1,0,0,1,0,-60)">
        <path d="M-3.5,63.5L64,-4" style="fill:none;stroke:black;stroke-width:1px;"/>
    </g>
</svg>
