<?xml version="1.0" encoding="UTF-8" standalone="no"?>
<!-- Created with Inkscape (http://www.inkscape.org/) -->

<svg width="147.17006mm" height="22.77763mm" viewBox="0 0 147.17006 22.77763" version="1.1" id="svg1" xml:space="preserve" inkscape:version="1.3 (0e150ed, 2023-07-21)" sodipodi:docname="divider_blue_trans2.svg" xmlns:inkscape="http://www.inkscape.org/namespaces/inkscape" xmlns:sodipodi="http://sodipodi.sourceforge.net/DTD/sodipodi-0.dtd" xmlns="http://www.w3.org/2000/svg" xmlns:svg="http://www.w3.org/2000/svg" xmlns:vectornator="http://vectornator.io"><sodipodi:namedview id="namedview1" pagecolor="#000000" bordercolor="#000000" borderopacity="0.25" inkscape:showpageshadow="2" inkscape:pageopacity="0.0" inkscape:pagecheckerboard="0" inkscape:deskcolor="#d1d1d1" inkscape:document-units="mm" showgrid="false" inkscape:zoom="0.85030189" inkscape:cx="218.15781" inkscape:cy="39.397772" inkscape:window-width="1408" inkscape:window-height="1212" inkscape:window-x="1002" inkscape:window-y="25" inkscape:window-maximized="0" inkscape:current-layer="layer1" inkscape:export-bgcolor="#ffffff05" /><defs id="defs1" /><g inkscape:label="Layer 1" inkscape:groupmode="layer" id="layer1" transform="translate(-0.903183,-4.3002704)"><g style="clip-rule:evenodd;display:inline;fill:#e3dada;fill-opacity:1;fill-rule:nonzero;stroke:#2a57f9;stroke-width:3.3761;stroke-linecap:round;stroke-linejoin:round;stroke-miterlimit:10;stroke-opacity:1" id="g1" transform="matrix(0.063591,0,0,0.09658249,-0.96048917,-140.44907)" inkscape:export-filename="g1.svg" inkscape:export-xdpi="96" inkscape:export-ydpi="96"><g id="Layer-1" vectornator:layerName="Layer 1" style="fill:#1ea3d0;fill-opacity:1;stroke:#2a57f9;stroke-width:3.3761;stroke-opacity:1" inkscape:export-filename="./Layer-b1.svg" inkscape:export-xdpi="96" inkscape:export-ydpi="96">&#10;<path d="m 281.34,1505.17 c -3.179,3.18 -6.756,8.54 -10.729,16.09 -3.974,7.55 -6.557,15.1 -7.749,22.65 -1.192,7.55 -1.59,13.91 -1.192,19.07 0.397,5.17 2.384,12.12 5.96,20.87 3.577,8.74 7.352,15.1 11.325,19.07 3.974,3.97 7.352,6.76 10.133,8.35 2.782,1.58 6.955,2.98 12.518,4.17 2.781,0.59 5.563,1.19 8.345,1.79 -2.583,-2.98 -5.166,-5.96 -7.749,-8.95 -5.166,-5.96 -9.935,-14.9 -14.306,-26.82 -4.371,-11.92 -6.556,-22.45 -6.556,-31.59 0,-4.57 0,-9.14 0,-13.71 0.198,4.37 0.397,8.74 0.596,13.12 0.397,8.74 2.185,17.08 5.364,25.03 3.179,7.95 7.55,15.1 13.114,21.46 5.563,6.36 10.331,10.33 14.305,11.92 1.987,0.79 3.974,1.59 5.961,2.38 -0.994,-2.78 -1.987,-5.56 -2.981,-8.34 -1.987,-5.57 -3.576,-16.69 -4.768,-33.38 -1.192,-16.69 -3.378,-28.61 -6.557,-35.76 -3.179,-7.16 -7.351,-14.31 -12.517,-21.46 -2.583,-3.58 -5.166,-7.16 -7.749,-10.73 -1.589,1.59 -3.179,3.18 -4.768,4.77 z m 1798.31,6.55 c -5.17,7.55 -9.14,14.31 -11.92,20.27 -2.78,5.96 -4.77,16.69 -5.96,32.19 -1.19,15.49 -2.78,27.02 -4.77,34.57 -0.99,3.77 -1.99,7.55 -2.98,11.32 2.38,-1.19 4.77,-2.38 7.15,-3.57 4.77,-2.39 9.54,-6.56 14.31,-12.52 4.77,-5.96 8.54,-12.32 11.32,-19.07 2.78,-6.76 4.37,-14.31 4.77,-22.65 0.2,-4.18 0.4,-8.35 0.6,-12.52 0.19,3.57 0.39,7.15 0.59,10.73 0.4,7.15 -0.4,14.1 -2.38,20.86 -1.99,6.75 -4.77,13.91 -8.35,21.46 -3.57,7.55 -7.55,13.51 -11.92,17.88 -2.18,2.18 -4.37,4.37 -6.55,6.56 2.78,-0.6 5.56,-1.2 8.34,-1.79 5.56,-1.19 10.33,-2.98 14.31,-5.37 3.97,-2.38 8.14,-6.35 12.51,-11.92 4.37,-5.56 7.75,-11.92 10.14,-19.07 2.38,-7.15 3.57,-14.31 3.57,-21.46 0,-7.15 -0.79,-13.91 -2.38,-20.27 -1.59,-6.35 -3.78,-12.12 -6.56,-17.28 -2.78,-5.17 -6.16,-9.74 -10.13,-13.71 -1.99,-1.99 -3.98,-3.97 -5.96,-5.96 -2.59,3.77 -5.17,7.55 -7.75,11.32 z m -1704.133,10.14 c -10.332,3.18 -18.478,7.55 -24.438,13.11 -5.961,5.56 -9.935,10.53 -11.922,14.9 -1.986,4.37 -3.179,9.14 -3.576,14.31 -0.397,5.16 0.795,10.73 3.576,16.69 2.782,5.96 1.987,10.73 -2.384,14.3 -4.371,3.58 -8.345,8.55 -11.921,14.9 -3.576,6.36 -5.762,11.13 -6.557,14.31 -0.794,3.18 -1.192,8.54 -1.192,16.09 0,7.55 0.398,12.52 1.192,14.9 0.398,1.2 0.795,2.39 1.192,3.58 -4.967,-5.96 -9.934,-11.92 -14.901,-17.88 -9.934,-11.92 -19.273,-20.67 -28.015,-26.23 -8.742,-5.56 -15.696,-9.14 -20.862,-10.73 -5.166,-1.59 -12.318,-2.38 -21.458,-2.38 -9.139,0 -16.292,0.79 -21.458,2.38 -2.583,0.8 -5.166,1.59 -7.749,2.39 4.57,5.76 9.14,11.52 13.71,17.28 9.139,11.53 20.067,23.05 32.783,34.57 12.716,11.53 24.24,19.48 34.571,23.85 10.332,4.37 19.67,6.55 28.015,6.55 4.172,0 8.345,0 12.517,0 -3.974,-2.18 -7.947,-4.37 -11.921,-6.55 -7.947,-4.37 -16.292,-9.94 -25.034,-16.69 -8.743,-6.76 -13.71,-10.73 -14.902,-11.92 -0.596,-0.6 -1.192,-1.2 -1.788,-1.79 0.397,-0.2 0.795,-0.4 1.192,-0.6 0.795,-0.4 4.967,1.99 12.517,7.15 7.55,5.17 14.902,9.54 22.054,13.12 7.153,3.57 12.12,5.56 14.902,5.96 2.782,0.4 7.351,4.17 13.709,11.32 3.179,3.58 6.358,7.16 9.537,10.73 -31.591,0 -63.182,0 -94.773,0 -31.591,0 -63.182,0 -94.773,0 0.596,-0.59 1.192,-1.19 1.788,-1.79 0.596,-0.59 1.192,-1.19 1.788,-1.78 -6.557,-2.98 -13.113,-5.97 -19.67,-8.95 -13.113,-5.96 -23.445,-9.93 -30.995,-11.92 -7.55,-1.98 -15.299,-2.98 -23.2464,-2.98 -7.9475,0 -16.0936,1.59 -24.4384,4.77 -8.3449,3.18 -15.6962,7.95 -22.0542,14.31 -3.179,3.18 -6.358,6.35 -9.5369,9.53 5.3645,2.59 10.729,5.17 16.0935,7.75 10.7291,5.17 22.6503,9.34 35.7636,12.52 13.1133,3.18 25.0348,4.37 35.7638,3.58 10.729,-0.8 18.478,-2.19 23.246,-4.18 4.768,-1.98 7.947,-3.77 9.537,-5.36 1.589,-1.59 37.949,-2.38 109.079,-2.38 71.129,0 110.469,1.98 118.019,5.96 7.55,3.97 15.1,6.95 22.651,8.94 7.55,1.98 22.252,3.37 44.108,4.17 21.855,0.79 43.711,-0.4 65.566,-3.58 21.856,-3.18 39.936,-6.55 54.242,-10.13 14.305,-3.58 107.688,-5.36 280.147,-5.36 172.459,0 272.999,-0.4 301.609,-1.2 28.61,-0.79 56.23,-0.79 82.85,0 26.62,0.8 126.16,1.2 298.62,1.2 172.46,0 271.61,2.78 297.44,8.34 25.83,5.56 44.11,8.94 54.84,10.13 10.72,1.2 24.04,1.79 39.93,1.79 15.9,0 29.21,-0.99 39.94,-2.98 10.73,-1.99 21.26,-5.36 31.59,-10.13 10.33,-4.77 51.06,-7.15 122.19,-7.15 71.13,0 107.09,0.59 107.89,1.78 0.79,1.2 3.77,2.98 8.94,5.37 5.16,2.38 13.31,3.97 24.44,4.77 11.12,0.79 23.64,-0.6 37.55,-4.18 13.91,-3.57 25.63,-7.55 35.17,-11.92 9.53,-4.37 14.1,-7.35 13.7,-8.94 -0.39,-1.59 -3.17,-4.77 -8.34,-9.54 -5.17,-4.76 -12.32,-8.94 -21.46,-12.51 -9.14,-3.58 -19.47,-4.97 -30.99,-4.17 -11.53,0.79 -25.83,4.76 -42.92,11.92 -8.54,3.57 -17.09,7.15 -25.63,10.73 0.6,0.59 1.19,1.19 1.79,1.78 0.59,0.6 1.19,1.2 1.79,1.79 -31.4,0 -62.79,0 -94.18,0 -31.39,0 -62.79,0 -94.18,0 2.78,-3.38 5.57,-6.75 8.35,-10.13 5.56,-6.76 12.12,-11.52 19.67,-14.31 7.55,-2.78 16.29,-7.35 26.22,-13.71 9.94,-6.35 15.3,-9.53 16.1,-9.53 0.39,0 0.79,0 1.19,0 -0.4,0.59 -0.8,1.19 -1.19,1.79 -0.8,1.19 -5.77,5.36 -14.9,12.51 -9.14,7.16 -17.29,12.72 -24.44,16.69 -3.58,1.99 -7.16,3.98 -10.73,5.96 4.17,0 8.34,0 12.52,0 8.34,0 18.47,-2.78 30.39,-8.34 11.93,-5.57 22.65,-12.72 32.19,-21.46 9.54,-8.74 18.68,-18.28 27.42,-28.61 8.74,-10.33 13.91,-17.09 15.5,-20.27 0.79,-1.59 1.59,-3.18 2.38,-4.77 -2.38,-0.59 -4.77,-1.19 -7.15,-1.78 -4.77,-1.2 -11.72,-1.79 -20.86,-1.79 -9.14,0 -16.89,0.99 -23.25,2.98 -6.36,1.99 -12.91,5.16 -19.67,9.54 -6.75,4.37 -13.11,9.53 -19.07,15.49 -5.96,5.96 -11.33,12.32 -16.1,19.08 -2.38,3.37 -4.77,6.75 -7.15,10.13 0.4,-4.37 0.8,-8.74 1.19,-13.11 0.8,-8.75 0.4,-16.1 -1.19,-22.06 -1.59,-5.96 -3.58,-10.93 -5.96,-14.9 -2.38,-3.97 -6.16,-8.15 -11.33,-12.52 -5.16,-4.37 -6.55,-8.34 -4.17,-11.92 2.39,-3.57 3.98,-7.35 4.77,-11.32 0.8,-3.98 0,-9.74 -2.38,-17.29 -2.39,-7.55 -6.36,-14.11 -11.92,-19.67 -5.57,-5.56 -10.93,-9.54 -16.1,-11.92 -5.16,-2.38 -10.73,-4.17 -16.69,-5.36 -5.96,-1.2 -12.71,-1.79 -20.26,-1.79 -3.78,0 -7.55,0 -11.33,0 0.6,4.77 1.19,9.53 1.79,14.3 1.19,9.54 2.98,16.49 5.36,20.87 2.39,4.37 4.97,7.94 7.75,10.72 2.78,2.79 8.55,6.16 17.29,10.14 4.37,1.98 8.74,3.97 13.11,5.96 -4.77,0 -9.54,0 -14.3,0 -9.54,0 -18.48,1.79 -26.83,5.36 -8.34,3.58 -14.9,8.55 -19.67,14.9 -4.76,6.36 -7.35,14.11 -7.75,23.25 -0.39,9.14 1,17.88 4.18,26.23 3.18,8.34 7.15,14.5 11.92,18.47 4.77,3.98 9.34,5.97 13.71,5.97 4.37,0 8.94,-1.99 13.71,-5.97 4.77,-3.97 7.55,-7.74 8.34,-11.32 0.8,-3.58 -0.2,-6.16 -2.98,-7.75 -2.78,-1.59 -6.16,-0.6 -10.13,2.98 -3.98,3.58 -6.76,5.37 -8.35,5.37 -1.59,0 -3.37,-0.8 -5.36,-2.39 -1.99,-1.59 -3.97,-4.57 -5.96,-8.94 -1.99,-4.37 -3.38,-8.94 -4.17,-13.71 -0.8,-4.77 0.39,-10.73 3.57,-17.88 3.18,-7.15 7.35,-12.32 12.52,-15.5 5.17,-3.18 11.72,-4.97 19.67,-5.36 7.95,-0.4 14.7,0.2 20.27,1.79 5.56,1.58 10.33,3.57 14.3,5.96 3.98,2.38 7.75,5.76 11.33,10.13 3.57,4.37 6.16,8.54 7.75,12.52 1.58,3.97 2.38,9.73 2.38,17.28 0,7.55 -2.38,16.49 -7.15,26.82 -4.77,10.34 -10.14,18.28 -16.1,23.85 -5.96,5.56 -50.46,8.34 -133.51,8.34 -83.05,0 -153.19,-7.35 -210.41,-22.05 -57.22,-14.71 -95.77,-23.84 -115.64,-27.42 -19.87,-3.58 -37.35,-6.16 -52.45,-7.75 -15.1,-1.59 -32.98,-2.38 -53.65,-2.38 -20.66,0 -41.32,1.78 -61.99,5.36 -20.66,3.58 -40.13,8.94 -58.41,16.09 -18.28,7.16 -31.99,13.51 -41.13,19.08 -9.14,5.56 -15.89,10.33 -20.26,14.3 -4.38,3.98 -32.79,5.96 -85.24,5.96 -52.45,0 -83.45,-3.57 -92.99,-10.73 -9.53,-7.15 -21.26,-14.1 -35.16,-20.86 -13.91,-6.75 -26.63,-11.92 -38.15,-15.49 -11.53,-3.58 -26.228,-6.76 -44.11,-9.54 -17.881,-2.78 -37.154,-4.17 -57.817,-4.17 -20.664,0 -43.314,1.59 -67.951,4.76 -24.637,3.18 -46.493,6.76 -65.567,10.73 -19.073,3.98 -52.651,12.32 -100.733,25.04 -48.083,12.71 -113.848,19.07 -197.296,19.07 -83.448,0 -128.749,-3.77 -135.901,-11.32 -7.153,-7.55 -12.518,-16.1 -16.094,-25.63 -3.576,-9.54 -4.967,-18.48 -4.172,-26.83 0.794,-8.34 3.775,-15.89 8.941,-22.65 5.165,-6.75 11.325,-11.72 18.477,-14.9 7.153,-3.18 14.703,-4.97 22.651,-5.36 7.947,-0.4 14.504,0.39 19.67,2.38 5.165,1.99 9.139,4.37 11.921,7.15 2.781,2.79 4.967,5.96 6.556,9.54 1.59,3.58 2.583,7.55 2.981,11.92 0.397,4.37 -0.795,10.33 -3.577,17.88 -2.781,7.55 -5.762,11.93 -8.941,13.12 -3.179,1.19 -6.954,0 -11.325,-3.58 -4.371,-3.58 -7.351,-5.16 -8.941,-4.77 -1.589,0.4 -2.98,1.39 -4.172,2.98 -1.192,1.59 -0.993,4.37 0.596,8.35 1.59,3.97 3.576,7.15 5.961,9.53 2.384,2.39 4.967,4.18 7.748,5.37 2.782,1.19 5.762,1.59 8.941,1.19 3.179,-0.4 6.954,-2.18 11.325,-5.36 4.372,-3.18 7.948,-7.35 10.729,-12.52 2.782,-5.17 4.769,-10.53 5.961,-16.09 1.192,-5.57 1.391,-12.32 0.596,-20.27 -0.795,-7.95 -2.583,-14.11 -5.364,-18.48 -2.782,-4.37 -5.365,-7.55 -7.749,-9.53 -2.384,-1.99 -5.961,-4.18 -10.729,-6.56 -4.769,-2.39 -9.736,-4.17 -14.902,-5.37 -5.166,-1.19 -11.523,-1.59 -19.074,-1.19 -3.775,0.2 -7.55,0.4 -11.325,0.6 4.967,-2.39 9.935,-4.77 14.902,-7.15 9.934,-4.77 17.087,-10.54 21.458,-17.29 4.371,-6.76 7.153,-14.7 8.345,-23.84 0.596,-4.57 1.192,-9.14 1.788,-13.71 -3.974,0 -7.948,0 -11.921,0 -7.948,0 -17.087,1.59 -27.419,4.77 z m 7.153,14.3 c 0,0.4 0,0.8 0,1.19 0,0.8 -1.391,1.79 -4.173,2.98 -2.781,1.2 -6.159,3.58 -10.133,7.16 -3.973,3.57 -7.55,8.54 -10.729,14.9 -3.179,6.36 -4.768,11.72 -4.768,16.09 0,4.37 -1.391,7.15 -4.173,8.35 -1.39,0.59 -2.781,1.19 -4.172,1.78 0,-1.98 0,-3.97 0,-5.96 0,-3.97 0.993,-8.14 2.98,-12.51 1.987,-4.37 5.365,-9.14 10.133,-14.31 4.769,-5.16 10.133,-9.73 16.094,-13.71 2.98,-1.98 5.96,-3.97 8.941,-5.96 z m 1611.74,2.39 c 2.98,1.98 5.96,3.97 8.94,5.96 5.96,3.97 10.93,8.34 14.9,13.11 3.98,4.77 6.96,9.54 8.95,14.31 1.98,4.76 2.78,8.74 2.38,11.92 -0.2,1.59 -0.4,3.18 -0.6,4.76 -1.19,-0.59 -2.38,-1.19 -3.57,-1.78 -2.39,-1.2 -3.78,-4.18 -4.17,-8.94 -0.4,-4.77 -1.79,-9.74 -4.18,-14.91 -2.38,-5.16 -6.75,-10.53 -13.11,-16.09 -3.18,-2.78 -6.36,-5.56 -9.54,-8.34 z m -1744.065,94.17 c 3.775,2.98 7.55,5.96 11.325,8.94 3.775,2.98 7.55,5.96 11.325,8.95 -3.775,-2.99 -7.55,-5.97 -11.325,-8.95 -3.775,-2.98 -7.55,-5.96 -11.325,-8.94 z m 1870.435,1.2 c -0.4,0.79 -0.8,1.58 -1.2,2.38 -0.79,1.59 -4.37,4.57 -10.72,8.94 -3.18,2.19 -6.36,4.37 -9.54,6.56 3.58,-2.98 7.15,-5.96 10.73,-8.94 3.57,-2.98 7.15,-5.96 10.73,-8.94 z m -1199.273,13.11 c 21.458,0 41.327,1.59 59.606,4.77 18.279,3.18 33.177,6.75 44.707,10.73 11.52,3.97 22.25,8.34 32.18,13.11 9.94,4.77 19.08,9.74 27.42,14.9 4.18,2.58 8.35,5.17 12.52,7.75 -0.79,0.4 -1.59,0.79 -2.38,1.19 -1.59,0.8 -77.09,1 -226.506,0.6 -74.706,-0.2 -149.412,-0.4 -224.118,-0.6 23.445,-6.16 46.89,-12.32 70.334,-18.48 46.89,-12.31 78.879,-20.06 95.966,-23.24 17.087,-3.18 34.373,-5.76 51.857,-7.75 17.484,-1.99 36.956,-2.98 58.414,-2.98 z m 531.683,0 c 22.25,0 44.31,1.39 66.16,4.17 21.86,2.78 42.32,6.16 61.4,10.13 19.07,3.98 48.68,11.33 88.81,22.06 20.07,5.36 40.14,10.73 60.2,16.09 -75.7,0.2 -151.4,0.4 -227.1,0.6 -75.7,0.2 -151.39,0.4 -227.09,0.59 4.96,-3.37 9.93,-6.75 14.9,-10.13 9.93,-6.75 22.25,-13.31 36.95,-19.67 14.71,-6.36 27.02,-10.93 36.96,-13.71 9.93,-2.78 21.66,-5.16 35.17,-7.15 13.51,-1.99 31.39,-2.98 53.64,-2.98 z M 73.9113,1700.67 c 7.5501,0.8 15.1001,1.59 22.6502,2.39 7.5505,0.79 15.1005,1.59 22.6505,2.38 -5.166,-0.2 -10.332,-0.39 -15.498,-0.59 -10.3315,-0.4 -17.8815,-1.2 -22.65,-2.39 -2.3842,-0.59 -4.7685,-1.19 -7.1527,-1.79 z m 2223.8987,0.6 c 0.99,0.2 1.98,0.4 2.98,0.6 -1,0.19 -1.99,0.39 -2.98,0.59 -1.99,0.4 -9.54,1.19 -22.65,2.39 -6.56,0.59 -13.12,1.19 -19.67,1.78 0,-0.39 0,-0.79 0,-1.19 0,-0.79 6.55,-1.79 19.67,-2.98 13.11,-1.19 20.66,-1.59 22.65,-1.19 z M 391.015,1712.6 c 25.829,0.19 51.658,0.39 77.487,0.59 25.829,0.2 51.659,0.4 77.488,0.6 -11.127,1.79 -22.253,3.57 -33.379,5.36 -22.253,3.58 -40.532,5.37 -54.838,5.37 -14.305,0 -26.226,-0.8 -35.763,-2.39 -9.537,-1.59 -17.087,-3.57 -22.651,-5.96 -2.781,-1.19 -5.563,-2.38 -8.344,-3.57 z m 1437.695,0 c 25.83,0.19 51.66,0.39 77.49,0.59 25.83,0.2 51.65,0.4 77.48,0.6 -5.96,1.59 -11.92,3.18 -17.88,4.77 -11.92,3.17 -26.82,4.96 -44.7,5.36 -17.88,0.4 -35.17,-0.6 -51.86,-2.98 -16.69,-2.38 -27.62,-4.37 -32.78,-5.96 -2.59,-0.8 -5.17,-1.59 -7.75,-2.38 z" fill="#000000" fill-rule="nonzero" opacity="1" stroke="none" vectornator:layerName="Curve 1" id="path2" style="fill:#1ea3d0;fill-opacity:1;stroke:#2a57f9;stroke-width:3.3761;stroke-opacity:1" />&#10;</g></g></g></svg>
