<svg width="75" height="32" viewBox="0 0 75 32" fill="none" xmlns="http://www.w3.org/2000/svg">
<rect width="75" height="32" rx="2" fill="#E6FD13"/>
<g clip-path="url(#clip0_4_5)">
<path d="M18.6457 11.8788H23.3021V8.72727H8.75662V11.8788H13.413L18.6457 20.1212H23.3021V23.2727H8.75662V20.1212H13.413" stroke="black" stroke-width="1.21212"/>
</g>
<path d="M30.9033 12.3906H35.0928V13.3623H33.5742V18.5332H35.0928V19.5H30.9033V18.5332H32.3877V13.3623H30.9033V12.3906ZM36.7627 19.5V14.2168H37.8174L37.8906 14.9688C37.9622 14.8678 38.0404 14.7751 38.125 14.6904C38.2129 14.6025 38.3057 14.5244 38.4033 14.4561C38.5596 14.3486 38.7305 14.2656 38.916 14.207C39.1016 14.1484 39.2969 14.1191 39.502 14.1191C39.7721 14.1191 40.0195 14.1582 40.2441 14.2363C40.4688 14.3145 40.6608 14.4382 40.8203 14.6074C40.9798 14.7767 41.1035 14.9932 41.1914 15.2568C41.2793 15.5173 41.3232 15.833 41.3232 16.2041V19.5H40.1562V16.2236C40.1562 16.0055 40.1318 15.8232 40.083 15.6768C40.0342 15.5303 39.9626 15.4131 39.8682 15.3252C39.7738 15.2373 39.6598 15.1755 39.5264 15.1396C39.3929 15.1006 39.2399 15.0811 39.0674 15.0811C38.9242 15.0811 38.7907 15.1006 38.667 15.1396C38.5433 15.1755 38.431 15.2275 38.3301 15.2959C38.252 15.348 38.1787 15.4115 38.1104 15.4863C38.042 15.5612 37.9818 15.6426 37.9297 15.7305V19.5H36.7627ZM44.4971 19.5L42.417 14.2168H43.6279L44.9365 18.0498L45.0146 18.4014L45.0928 18.0498L46.3867 14.2168H47.5977L45.5273 19.5H44.4971ZM48.5596 16.8096C48.5596 16.4255 48.6149 16.0706 48.7256 15.7451C48.8363 15.4163 48.9974 15.1315 49.209 14.8906C49.4173 14.6497 49.6729 14.4609 49.9756 14.3242C50.2783 14.1875 50.6234 14.1191 51.0107 14.1191C51.3981 14.1191 51.7432 14.1875 52.0459 14.3242C52.3519 14.4609 52.6107 14.6497 52.8223 14.8906C53.0306 15.1315 53.1901 15.4163 53.3008 15.7451C53.4115 16.0706 53.4668 16.4255 53.4668 16.8096V16.9121C53.4668 17.2995 53.4115 17.6559 53.3008 17.9814C53.1901 18.307 53.0306 18.5902 52.8223 18.8311C52.6139 19.0719 52.3568 19.2607 52.0508 19.3975C51.748 19.5342 51.4046 19.6025 51.0205 19.6025C50.6331 19.6025 50.2865 19.5342 49.9805 19.3975C49.6745 19.2607 49.4173 19.0719 49.209 18.8311C48.9974 18.5902 48.8363 18.307 48.7256 17.9814C48.6149 17.6559 48.5596 17.2995 48.5596 16.9121V16.8096ZM49.7266 16.9121C49.7266 17.1497 49.751 17.3743 49.7998 17.5859C49.8519 17.7975 49.9316 17.9831 50.0391 18.1426C50.1432 18.3021 50.2767 18.429 50.4395 18.5234C50.6022 18.6146 50.7959 18.6602 51.0205 18.6602C51.2386 18.6602 51.429 18.6146 51.5918 18.5234C51.7546 18.429 51.888 18.3021 51.9922 18.1426C52.0964 17.9831 52.1729 17.7975 52.2217 17.5859C52.2738 17.3743 52.2998 17.1497 52.2998 16.9121V16.8096C52.2998 16.5785 52.2738 16.3571 52.2217 16.1455C52.1696 15.9339 52.0931 15.7484 51.9922 15.5889C51.8848 15.4294 51.7497 15.3024 51.5869 15.208C51.4274 15.1136 51.2354 15.0664 51.0107 15.0664C50.7894 15.0664 50.5973 15.1136 50.4346 15.208C50.2751 15.3024 50.1432 15.4294 50.0391 15.5889C49.9316 15.7484 49.8519 15.9339 49.7998 16.1455C49.751 16.3571 49.7266 16.5785 49.7266 16.8096V16.9121ZM56.5967 17.2002L55.9619 17.8008V19.5H54.79V12H55.9619V16.4141L56.4453 15.877L58.0225 14.2168H59.4287L57.373 16.4189L59.7266 19.5H58.2812L56.5967 17.2002ZM63.252 19.5977C62.8613 19.5977 62.5033 19.5326 62.1777 19.4023C61.8555 19.2721 61.5788 19.0915 61.3477 18.8604C61.1165 18.6325 60.9375 18.3639 60.8105 18.0547C60.6868 17.7422 60.625 17.4053 60.625 17.0439V16.8438C60.625 16.4303 60.6901 16.056 60.8203 15.7207C60.9505 15.3854 61.1296 15.099 61.3574 14.8613C61.5853 14.6237 61.849 14.4414 62.1484 14.3145C62.4512 14.1842 62.7734 14.1191 63.1152 14.1191C63.4961 14.1191 63.833 14.1842 64.126 14.3145C64.4189 14.4414 64.6647 14.6188 64.8633 14.8467C65.0618 15.0778 65.2116 15.3529 65.3125 15.6719C65.4134 15.9909 65.4639 16.3392 65.4639 16.7168V17.2197H61.8018V17.2441C61.8376 17.4753 61.8929 17.6689 61.9678 17.8252C62.0426 17.9814 62.1452 18.1214 62.2754 18.2451C62.4056 18.3753 62.5586 18.4762 62.7344 18.5479C62.9134 18.6195 63.1087 18.6553 63.3203 18.6553C63.61 18.6553 63.8802 18.5999 64.1309 18.4893C64.3815 18.3753 64.5882 18.2142 64.751 18.0059L65.376 18.6113C65.2002 18.8652 64.93 19.0931 64.5654 19.2949C64.2041 19.4967 63.7663 19.5977 63.252 19.5977ZM63.1104 15.0664C62.9443 15.0664 62.7897 15.0973 62.6465 15.1592C62.5065 15.2178 62.3812 15.3024 62.2705 15.4131C62.1598 15.527 62.0671 15.6637 61.9922 15.8232C61.9173 15.9827 61.862 16.1634 61.8262 16.3652H64.3115V16.2871C64.3115 16.1341 64.2839 15.9827 64.2285 15.833C64.1732 15.68 64.0951 15.5465 63.9941 15.4326C63.8965 15.3219 63.7728 15.234 63.623 15.1689C63.4766 15.1006 63.3057 15.0664 63.1104 15.0664Z" fill="black"/>
<defs>
<clipPath id="clip0_4_5">
<rect width="16" height="16" fill="white" transform="translate(8 8)"/>
</clipPath>
</defs>
</svg>
